{
	"asset":{
		"version":"2.0",
		"generator":"Created using the official Cinema 4D glTF Exporter 1.000x284978"
	},
	"scenes":[{
		"nodes":[0]
	}],
	"nodes":[{
		"name":"平刃有檔-三角柄_body1",
		"translation":[0.0,
		0.0,
		0.0],
		"rotation":[0.0,
		0.0,
		0.0,
		-1.0],
		"scale":[1.0,
		1.0,
		1.0],
		"children":[1,
		2,
		3]
	},
	{
		"name":"平刃有檔-三角柄_body1-材质",
		"translation":[0.0,
		0.0,
		0.0],
		"rotation":[0.0,
		0.0,
		0.0,
		-1.0],
		"scale":[1.0,
		1.0,
		1.0],
		"mesh":0
	},
	{
		"name":"平刃有檔-三角柄_body1-牙碗 ",
		"translation":[0.0,
		0.0,
		0.0],
		"rotation":[0.0,
		0.0,
		0.0,
		-1.0],
		"scale":[1.0,
		1.0,
		1.0],
		"mesh":1
	},
	{
		"name":"平刃有檔-三角柄_body1-牙碗 ",
		"translation":[0.0,
		0.0,
		0.0],
		"rotation":[0.0,
		0.0,
		0.0,
		-1.0],
		"scale":[1.0,
		1.0,
		1.0],
		"mesh":2
	}],
	"meshes":[{
		"name":"平刃有檔-三角柄_body1-材质",
		"primitives":[{
			"attributes":{
				"POSITION":1,
				"NORMAL":2,
				"TEXCOORD_0":3
			},
			"indices":0,
			"material":0
		}]
	},
	{
		"name":"平刃有檔-三角柄_body1-牙碗 ",
		"primitives":[{
			"attributes":{
				"POSITION":5,
				"NORMAL":6,
				"TEXCOORD_0":7
			},
			"indices":4,
			"material":1
		}]
	},
	{
		"name":"平刃有檔-三角柄_body1-牙碗 ",
		"primitives":[{
			"attributes":{
				"POSITION":9,
				"NORMAL":10,
				"TEXCOORD_0":11
			},
			"indices":8,
			"material":1
		}]
	}],
	"accessors":[{
		"bufferView":0,
		"count":252,
		"type":"SCALAR",
		"componentType":5123,
		"byteOffset":0,
		"min":[0],
		"max":[143]
	},
	{
		"bufferView":1,
		"count":144,
		"type":"VEC3",
		"componentType":5126,
		"byteOffset":0,
		"min":[-1.5775511264801026,
		6.41449499130249,
		-1.5593252182006837],
		"max":[1.5775511264801026,
		7.079155921936035,
		1.5593252182006837]
	},
	{
		"bufferView":1,
		"count":144,
		"type":"VEC3",
		"componentType":5126,
		"byteOffset":12,
		"min":[-0.9724375605583191,
		-0.34200000762939455,
		-0.9998750686645508],
		"max":[0.9724375605583191,
		0.9167500138282776,
		0.9998750686645508]
	},
	{
		"bufferView":1,
		"count":144,
		"type":"VEC2",
		"componentType":5126,
		"byteOffset":24,
		"min":[-2.960260370166168e-10,
		-0.0003134820144623518],
		"max":[1.0,
		1.0]
	},
	{
		"bufferView":2,
		"count":135,
		"type":"SCALAR",
		"componentType":5123,
		"byteOffset":0,
		"min":[0],
		"max":[48]
	},
	{
		"bufferView":3,
		"count":49,
		"type":"VEC3",
		"componentType":5126,
		"byteOffset":0,
		"min":[-0.25,
		3.5199999809265138,
		0.16583123803138734],
		"max":[0.25,
		4.019999980926514,
		0.949999988079071]
	},
	{
		"bufferView":3,
		"count":49,
		"type":"VEC3",
		"componentType":5126,
		"byteOffset":12,
		"min":[-1.0,
		-1.0,
		0.0],
		"max":[1.0,
		1.0,
		0.0]
	},
	{
		"bufferView":3,
		"count":49,
		"type":"VEC2",
		"componentType":5126,
		"byteOffset":24,
		"min":[0.0004219386028125882,
		-5.27956059540079e-16],
		"max":[1.0,
		1.0]
	},
	{
		"bufferView":4,
		"count":5217,
		"type":"SCALAR",
		"componentType":5123,
		"byteOffset":0,
		"min":[0],
		"max":[1872]
	},
	{
		"bufferView":5,
		"count":1873,
		"type":"VEC3",
		"componentType":5126,
		"byteOffset":0,
		"min":[-1.6399999856948853,
		0.0,
		-1.6399999856948853],
		"max":[1.6399999856948853,
		7.0199995040893559,
		1.6399999856948853]
	},
	{
		"bufferView":5,
		"count":1873,
		"type":"VEC3",
		"componentType":5126,
		"byteOffset":12,
		"min":[-1.0,
		-1.0,
		-1.0],
		"max":[1.0,
		1.0,
		1.0]
	},
	{
		"bufferView":5,
		"count":1873,
		"type":"VEC2",
		"componentType":5126,
		"byteOffset":24,
		"min":[-0.000004211300620227121,
		-0.0000014216823274182389],
		"max":[1.000000238418579,
		1.0]
	}],
	"bufferViews":[{
		"buffer":0,
		"byteOffset":0,
		"byteLength":504,
		"target":34963
	},
	{
		"buffer":0,
		"byteOffset":504,
		"byteLength":4608,
		"target":34962,
		"byteStride":32
	},
	{
		"buffer":1,
		"byteOffset":0,
		"byteLength":270,
		"target":34963
	},
	{
		"buffer":1,
		"byteOffset":272,
		"byteLength":1568,
		"target":34962,
		"byteStride":32
	},
	{
		"buffer":2,
		"byteOffset":0,
		"byteLength":10434,
		"target":34963
	},
	{
		"buffer":2,
		"byteOffset":10436,
		"byteLength":59936,
		"target":34962,
		"byteStride":32
	}],
	"buffers":[{
		"uri":"data:application/octet-stream;base64,",
		"byteLength":5112
	},
	{
		"uri":"data:application/octet-stream;base64,",
		"byteLength":1840
	},
	{
		"uri":"data:application/octet-stream;base64,",
		"byteLength":70372
	}],
	"images":[{
		"uri":"data:image/jpeg;base64,"
	}],
	"samplers":[{
		"magFilter":9729,
		"minFilter":9729,
		"wrapS":10497,
		"wrapT":10497
	}],
	"textures":[{
		"sampler":0,
		"source":0
	}],
	"materials":[{
		"doubleSided":false,
		"pbrMetallicRoughness":{
			"baseColorFactor":[0.8,
			0.8,
			0.8,
			1.0],
			"metallicFactor":1.0,
			"roughnessFactor":0.1
		},
		"name":"材质",
		"emissiveFactor":[0.0,
		0.0,
		0.0],
		"alphaMode":"OPAQUE"
	},
	{
		"doubleSided":false,
		"pbrMetallicRoughness":{
			"baseColorFactor":[0.7762500000000001,
			0.7650000000000001,
			0.9,
			1.0],
			"metallicFactor":0.5,
			"roughnessFactor":0.19999999999999996
		},
		"normalTexture":{
			"index":0,
			"scale":0.2
		},
		"name":"牙碗 ",
		"emissiveFactor":[0.0,
		0.0,
		0.0],
		"alphaMode":"OPAQUE"
	}]
}