{
	"asset":{
		"version":"2.0",
		"generator":"Created using the official Cinema 4D glTF Exporter 1.000x284978"
	},
	"scenes":[{
		"nodes":[0,
		1]
	}],
	"nodes":[{
		"name":"摄像机.1",
		"translation":[12.385210037231446,
		5.917303085327148,
		-8.182083129882813],
		"rotation":[0.031249724328517915,
		-0.907298743724823,
		-0.06853730231523514,
		-0.4136847257614136],
		"scale":[1.0,
		1.0,
		1.0],
		"camera":0
	},
	{
		"name":"GCW-BS-6.25-38T-K01-20200615.SLDPRT",
		"children":[2]
	},
	{
		"name":"Solid1",
		"mesh":0
	}],
	"meshes":[{
		"name":"Solid1",
		"primitives":[{
			"indices":0,
			"attributes":{
				"POSITION":1,
				"NORMAL":2,
				"TEXCOORD_0":3
			},
			"material":0
		}]
	}],
	"cameras":[{
		"type":"perspective",
		"perspective":{
			"znear":0.009999999776482582,
			"zfar":10000000000.0,
			"aspectRatio":1.7777777910232545,
			"yfov":0.5483348965644836
		}
	}],
	"accessors":[{
		"max":[11854],
		"bufferView":0,
		"type":"SCALAR",
		"componentType":5123,
		"count":29880,
		"byteOffset":0,
		"min":[0]
	},
	{
		"max":[8.051435470581055,
		8.02804946899414,
		0.14000000059604646],
		"bufferView":1,
		"type":"VEC3",
		"componentType":5126,
		"count":11856,
		"byteOffset":0,
		"min":[-8.051435470581055,
		-8.02804946899414,
		-0.8100000619888306]
	},
	{
		"max":[1.0,
		1.0,
		1.0],
		"bufferView":1,
		"type":"VEC3",
		"componentType":5126,
		"count":11856,
		"byteOffset":12,
		"min":[-1.0,
		-1.0,
		-1.0]
	},
	{
		"max":[1.0000019073486329,
		1.0],
		"bufferView":1,
		"type":"VEC2",
		"componentType":5126,
		"count":11856,
		"byteOffset":24,
		"min":[-0.000005316190708981594,
		-1.2503291735299627e-9]
	}],
	"bufferViews":[{
		"buffer":0,
		"byteOffset":0,
		"byteLength":59760,
		"target":34963
	},
	{
		"buffer":0,
		"byteOffset":59760,
		"byteLength":379392,
		"target":34962,
		"byteStride":32
	}],
	"buffers":[{
		"uri":"data:application/octet-stream;base64,",
		"byteLength":439152
	}],
	"images":[{
		"uri":"data:image/jpeg;base64,"
	},
	{
		"uri":"data:image/jpeg;base64,"
	},
	{
		"uri":"data:image/jpeg;base64,"
	}],
	"samplers":[{
		"magFilter":9729,
		"minFilter":9729,
		"wrapS":10497,
		"wrapT":10497
	},
	{
		"magFilter":9729,
		"minFilter":9729,
		"wrapS":10497,
		"wrapT":10497
	},
	{
		"magFilter":9729,
		"minFilter":9729,
		"wrapS":10497,
		"wrapT":10497
	}],
	"textures":[{
		"sampler":0,
		"source":0
	},
	{
		"sampler":1,
		"source":1
	},
	{
		"sampler":2,
		"source":2
	}],
	"materials":[{
		"pbrMetallicRoughness":{
			"baseColorTexture":{
				"index":0
			},
			"baseColorFactor":[0.13725490868091584,
			0.09411764889955522,
			0.08627451211214066,
			1.0],
			"metallicFactor":0.5,
			"roughnessFactor":0.20000000000000008
		},
		"normalTexture":{
			"index":1,
			"scale":1.0
		},
		"occlusionTexture":{
			"index":2,
			"strength":1.0
		},
		"emissiveFactor":[0.0,
		0.0,
		0.0],
		"name":"Black2.PBR",
		"alphaMode":"OPAQUE",
		"doubleSided":true
	}]
}